<svg width="375" height="138" viewBox="0 0 375 138" fill="none" xmlns="http://www.w3.org/2000/svg">
<path opacity="0.1" d="M388.368 126.882C334.159 127.603 326.054 172.835 264.641 179.142C228.082 182.927 227.721 167.248 180.896 166.708C107.777 165.987 95.7104 204.011 47.8045 194.46C0.799194 185.089 -5.3241 144.903 -58.6328 140.397C-81.145 138.595 -88.5289 144.903 -109.42 139.136C-134.994 131.928 -163.449 111.204 -166.691 87.9569C-171.734 51.3747 -114.103 14.6122 -62.9551 14.6122C-11.6275 14.7924 -1.18182 52.0955 49.2453 53.5372C111.919 55.3392 123.265 -1.06589 182.517 0.0153503C238.347 0.916397 244.11 51.3747 320.471 71.1976C398.994 91.3809 468.331 77.5048 522 87.5965C442.757 142.56 429.07 126.161 388.368 126.882Z" fill="url(#paint0_linear_66_186)"/>
<defs>
<linearGradient id="paint0_linear_66_186" x1="510.225" y1="160.813" x2="-162.51" y2="51.6637" gradientUnits="userSpaceOnUse">
<stop stop-color="white" stop-opacity="0"/>
<stop offset="0.984" stop-color="white"/>
</linearGradient>
</defs>
</svg>
