<svg width="373" height="135" viewBox="0 0 373 135" fill="none" xmlns="http://www.w3.org/2000/svg">
<path opacity="0.1" d="M3.57426 127.452C20.4476 115.205 35.787 99.6929 54.3648 91.7327C78.0557 81.5273 103.962 84.9971 129.017 83.5684C210.827 78.6698 283.774 20.295 364.221 1.31298C370.868 -0.319882 378.538 -1.34042 383.822 3.96638C392.003 12.3348 387.401 28.0511 383.14 39.8893C371.55 72.7507 368.141 109.694 373.595 144.801C318.033 124.798 259.061 126.431 201.112 128.268C159.866 129.493 118.62 130.717 77.3739 132.146C56.9214 132.758 36.4688 133.371 16.1867 133.983C5.44907 133.983 -5.97027 134.391 3.57426 127.452Z" fill="url(#paint0_linear_66_187)"/>
<defs>
<linearGradient id="paint0_linear_66_187" x1="-60.2947" y1="72.2612" x2="328.064" y2="72.2612" gradientUnits="userSpaceOnUse">
<stop stop-color="white" stop-opacity="0"/>
<stop offset="0.984" stop-color="white"/>
</linearGradient>
</defs>
</svg>
