<svg width="301" height="122" viewBox="0 0 301 122" fill="none" xmlns="http://www.w3.org/2000/svg">
<path opacity="0.1" d="M3.13852 -7.38734C17.9548 5.04513 31.4242 20.7929 47.7371 28.874C68.5398 39.2344 91.2882 35.7119 113.288 37.1623C185.125 42.1353 249.179 101.397 319.819 120.667C325.655 122.325 332.39 123.361 337.03 117.973C344.213 109.478 340.172 93.5229 336.431 81.5048C326.254 48.1444 323.261 10.6397 328.05 -25C279.261 -4.69363 227.479 -6.3513 176.594 -8.21617C140.377 -9.45943 104.159 -10.7027 67.9412 -12.1531C49.982 -12.7747 32.0229 -13.3964 14.2133 -14.018C4.78477 -14.018 -5.24243 -14.4324 3.13852 -7.38734Z" fill="url(#paint0_linear_66_112)"/>
<defs>
<linearGradient id="paint0_linear_66_112" x1="-52.9441" y1="48.6413" x2="288.07" y2="48.6413" gradientUnits="userSpaceOnUse">
<stop stop-color="white" stop-opacity="0"/>
<stop offset="0.984" stop-color="white"/>
</linearGradient>
</defs>
</svg>
