<svg width="375" height="107" viewBox="0 0 375 107" fill="none" xmlns="http://www.w3.org/2000/svg">
<path opacity="0.1" d="M-198.731 -1.10852C-139.801 -1.72271 -130.991 -40.2624 -64.2299 -45.6365C-24.4864 -48.8609 -24.0949 -35.5025 26.808 -35.0419C106.295 -34.4277 119.412 -66.8256 171.49 -58.6878C222.588 -50.7035 229.245 -16.463 287.196 -12.6244C311.668 -11.0889 319.695 -16.463 342.406 -11.5496C370.207 -5.40778 401.14 12.2499 404.664 32.0571C410.146 63.2267 347.496 94.5498 291.895 94.5498C236.097 94.3963 224.742 62.6125 169.923 61.3842C101.792 59.8487 89.4577 107.908 25.046 106.987C-35.6459 106.219 -41.9109 63.2267 -124.922 46.3368C-210.282 29.1398 -285.657 40.9627 -344 32.3642C-257.857 -14.4669 -242.977 -0.494347 -198.731 -1.10852Z" fill="url(#paint0_linear_66_111)"/>
<defs>
<linearGradient id="paint0_linear_66_111" x1="-331.199" y1="-30.0194" x2="388.529" y2="118.968" gradientUnits="userSpaceOnUse">
<stop stop-color="white" stop-opacity="0"/>
<stop offset="0.984" stop-color="white"/>
</linearGradient>
</defs>
</svg>
